<?xml version="1.0" standalone="no"?>
<!DOCTYPE svg PUBLIC "-//W3C//DTD SVG 20010904//EN"
 "http://www.w3.org/TR/2001/REC-SVG-20010904/DTD/svg10.dtd">
<svg version="1.0" xmlns="http://www.w3.org/2000/svg"
 width="148.000000pt" height="148.000000pt" viewBox="0 0 148.000000 148.000000"
 preserveAspectRatio="xMidYMid meet">

<g transform="translate(0.000000,148.000000) scale(0.100000,-0.100000)"
fill="#000000" stroke="none">
<path d="M200 1471 c-69 -22 -140 -82 -176 -151 -18 -33 -19 -68 -19 -580 0
-540 0 -545 22 -585 25 -47 84 -105 133 -131 33 -18 68 -19 580 -19 540 0 545
0 585 22 47 25 105 84 131 133 18 33 19 68 19 580 0 512 -1 547 -19 580 -26
49 -84 108 -131 133 -39 22 -47 22 -570 24 -292 1 -541 -2 -555 -6z m426 -290
c23 -10 50 -32 61 -47 11 -16 82 -152 158 -303 158 -316 165 -341 122 -433
-32 -71 -81 -109 -146 -116 -71 -6 -111 11 -190 85 l-71 65 -71 -65 c-79 -74
-119 -91 -190 -85 -63 6 -114 45 -145 112 -45 97 -42 109 126 445 117 233 157
305 182 324 54 41 102 46 164 18z m676 -10 c30 -26 33 -35 33 -84 0 -47 -5
-61 -31 -94 l-32 -39 29 -31 c42 -48 49 -90 49 -310 l0 -203 -25 0 -25 0 0
200 c0 212 -6 246 -49 284 -21 19 -21 19 -46 -4 -38 -36 -45 -79 -45 -287 l0
-193 -25 0 -25 0 0 196 c0 214 8 265 49 315 l28 33 -31 44 c-25 35 -31 54 -31
94 0 43 4 53 33 79 24 22 42 29 72 29 30 0 48 -7 72 -29z"/>
<path d="M496 1129 c-29 -22 -283 -518 -307 -597 -30 -101 59 -216 154 -198
32 6 151 98 170 131 5 9 -5 31 -28 61 -62 81 -78 120 -73 184 7 99 75 159 165
146 84 -11 133 -71 133 -160 0 -52 -21 -99 -74 -170 -20 -25 -36 -50 -36 -55
0 -5 32 -36 72 -70 78 -66 119 -81 168 -61 59 25 108 111 96 170 -3 16 -68
156 -144 312 -96 196 -147 291 -167 306 -36 29 -93 29 -129 1z"/>
<path d="M508 793 c-63 -40 -62 -120 2 -212 24 -34 46 -61 50 -61 4 0 26 28
50 61 32 46 44 74 48 110 4 45 2 51 -31 84 -40 40 -75 45 -119 18z"/>
<path d="M1197 1132 c-24 -27 -21 -76 7 -109 21 -24 26 -26 41 -13 45 38 54
109 15 130 -27 15 -45 12 -63 -8z"/>
</g>
</svg>
